<?xml version="1.0" standalone="no"?>
<!DOCTYPE svg PUBLIC "-//W3C//DTD SVG 20010904//EN"
 "http://www.w3.org/TR/2001/REC-SVG-20010904/DTD/svg10.dtd">
<svg version="1.0" xmlns="http://www.w3.org/2000/svg"
 width="16.000000pt" height="16.000000pt" viewBox="0 0 16.000000 16.000000"
 preserveAspectRatio="xMidYMid meet">
<metadata>
Created by potrace 1.11, written by Peter Selinger 2001-2013
</metadata>
<g transform="translate(0.000000,16.000000) scale(0.003931,-0.003931)"
fill="#000000" stroke="none">
<path d="M1947 4064 c-1 -1 -40 -4 -87 -8 -99 -7 -128 -11 -230 -32 -41 -9
-86 -18 -99 -20 -60 -12 -270 -89 -364 -132 -512 -242 -915 -709 -1075 -1247
-60 -202 -84 -370 -84 -585 -1 -674 330 -1299 889 -1678 227 -154 550 -283
793 -317 25 -4 63 -10 86 -14 41 -8 146 -14 244 -15 74 0 279 12 288 17 4 3
30 7 59 11 72 8 262 59 363 96 135 50 302 135 418 213 119 81 124 84 231 179
98 87 220 219 274 298 128 184 200 314 260 465 36 91 90 271 101 335 3 19 8
44 10 56 2 12 7 45 11 75 3 30 9 68 12 84 12 73 4 392 -13 480 -2 10 -6 37
-10 60 -14 96 -70 305 -99 370 -8 17 -26 59 -40 95 -88 214 -277 486 -449 648
-390 366 -851 554 -1388 566 -54 1 -100 1 -101 0z"/>
</g>
</svg>
